<mxfile host="app.diagrams.net" agent="Mozilla/5.0 (Windows NT 10.0; Win64; x64; rv:133.0) Gecko/20100101 Firefox/133.0" version="25.0.3">
  <diagram name="Страница — 1" id="bwo2oGs9ogktzr2J4hC-">
    <mxGraphModel dx="2390" dy="1290" grid="1" gridSize="10" guides="1" tooltips="1" connect="1" arrows="1" fold="1" page="1" pageScale="1" pageWidth="827" pageHeight="1169" math="0" shadow="0">
      <root>
        <mxCell id="0" />
        <mxCell id="1" parent="0" />
        <mxCell id="MzyutKGNI4zdLHdTND5u-3" style="edgeStyle=orthogonalEdgeStyle;rounded=0;orthogonalLoop=1;jettySize=auto;html=1;entryX=0.5;entryY=0;entryDx=0;entryDy=0;" edge="1" parent="1" source="MzyutKGNI4zdLHdTND5u-1" target="MzyutKGNI4zdLHdTND5u-2">
          <mxGeometry relative="1" as="geometry" />
        </mxCell>
        <mxCell id="MzyutKGNI4zdLHdTND5u-1" value="User" style="shape=umlActor;verticalLabelPosition=bottom;verticalAlign=top;html=1;outlineConnect=0;" vertex="1" parent="1">
          <mxGeometry x="399" y="30" width="30" height="60" as="geometry" />
        </mxCell>
        <mxCell id="MzyutKGNI4zdLHdTND5u-8" style="edgeStyle=orthogonalEdgeStyle;rounded=0;orthogonalLoop=1;jettySize=auto;html=1;entryX=0.5;entryY=0;entryDx=0;entryDy=0;" edge="1" parent="1" source="MzyutKGNI4zdLHdTND5u-2" target="MzyutKGNI4zdLHdTND5u-6">
          <mxGeometry relative="1" as="geometry" />
        </mxCell>
        <mxCell id="MzyutKGNI4zdLHdTND5u-9" style="edgeStyle=orthogonalEdgeStyle;rounded=0;orthogonalLoop=1;jettySize=auto;html=1;" edge="1" parent="1" source="MzyutKGNI4zdLHdTND5u-2" target="MzyutKGNI4zdLHdTND5u-5">
          <mxGeometry relative="1" as="geometry" />
        </mxCell>
        <mxCell id="MzyutKGNI4zdLHdTND5u-10" style="edgeStyle=orthogonalEdgeStyle;rounded=0;orthogonalLoop=1;jettySize=auto;html=1;entryX=0.5;entryY=0;entryDx=0;entryDy=0;" edge="1" parent="1" source="MzyutKGNI4zdLHdTND5u-2" target="MzyutKGNI4zdLHdTND5u-7">
          <mxGeometry relative="1" as="geometry" />
        </mxCell>
        <mxCell id="MzyutKGNI4zdLHdTND5u-2" value="Пользователь зарегистрирован?" style="rhombus;whiteSpace=wrap;html=1;" vertex="1" parent="1">
          <mxGeometry x="339" y="130" width="150" height="100" as="geometry" />
        </mxCell>
        <mxCell id="MzyutKGNI4zdLHdTND5u-5" value="Не могу войти" style="rounded=0;whiteSpace=wrap;html=1;" vertex="1" parent="1">
          <mxGeometry x="530" y="260" width="90" height="30" as="geometry" />
        </mxCell>
        <mxCell id="MzyutKGNI4zdLHdTND5u-12" style="edgeStyle=orthogonalEdgeStyle;rounded=0;orthogonalLoop=1;jettySize=auto;html=1;entryX=0;entryY=0.5;entryDx=0;entryDy=0;" edge="1" parent="1" source="MzyutKGNI4zdLHdTND5u-6" target="MzyutKGNI4zdLHdTND5u-11">
          <mxGeometry relative="1" as="geometry">
            <Array as="points">
              <mxPoint x="255" y="1390" />
            </Array>
          </mxGeometry>
        </mxCell>
        <mxCell id="MzyutKGNI4zdLHdTND5u-6" value="Да" style="rounded=0;whiteSpace=wrap;html=1;" vertex="1" parent="1">
          <mxGeometry x="210" y="260" width="90" height="30" as="geometry" />
        </mxCell>
        <mxCell id="MzyutKGNI4zdLHdTND5u-14" style="edgeStyle=orthogonalEdgeStyle;rounded=0;orthogonalLoop=1;jettySize=auto;html=1;entryX=0.5;entryY=0;entryDx=0;entryDy=0;" edge="1" parent="1" source="MzyutKGNI4zdLHdTND5u-7" target="MzyutKGNI4zdLHdTND5u-13">
          <mxGeometry relative="1" as="geometry" />
        </mxCell>
        <mxCell id="MzyutKGNI4zdLHdTND5u-7" value="Нет" style="rounded=0;whiteSpace=wrap;html=1;" vertex="1" parent="1">
          <mxGeometry x="369" y="260" width="90" height="30" as="geometry" />
        </mxCell>
        <mxCell id="MzyutKGNI4zdLHdTND5u-11" value="Вход" style="ellipse;whiteSpace=wrap;html=1;" vertex="1" parent="1">
          <mxGeometry x="354" y="1370" width="120" height="40" as="geometry" />
        </mxCell>
        <mxCell id="MzyutKGNI4zdLHdTND5u-13" value="Регистрация" style="whiteSpace=wrap;html=1;aspect=fixed;" vertex="1" parent="1">
          <mxGeometry x="374" y="340" width="80" height="80" as="geometry" />
        </mxCell>
        <mxCell id="MzyutKGNI4zdLHdTND5u-30" style="edgeStyle=orthogonalEdgeStyle;rounded=0;orthogonalLoop=1;jettySize=auto;html=1;entryX=0.5;entryY=0;entryDx=0;entryDy=0;" edge="1" parent="1" source="MzyutKGNI4zdLHdTND5u-15" target="MzyutKGNI4zdLHdTND5u-22">
          <mxGeometry relative="1" as="geometry" />
        </mxCell>
        <mxCell id="MzyutKGNI4zdLHdTND5u-15" value="Данные аккаунта" style="swimlane;fontStyle=0;childLayout=stackLayout;horizontal=1;startSize=30;horizontalStack=0;resizeParent=1;resizeParentMax=0;resizeLast=0;collapsible=1;marginBottom=0;whiteSpace=wrap;html=1;" vertex="1" parent="1">
          <mxGeometry x="329" y="460" width="170" height="180" as="geometry" />
        </mxCell>
        <mxCell id="MzyutKGNI4zdLHdTND5u-16" value="Логин&lt;span style=&quot;white-space: pre;&quot;&gt;&#x9;&lt;/span&gt;&lt;span style=&quot;white-space: pre;&quot;&gt;&#x9;&lt;/span&gt;" style="text;strokeColor=none;fillColor=none;align=left;verticalAlign=middle;spacingLeft=4;spacingRight=4;overflow=hidden;points=[[0,0.5],[1,0.5]];portConstraint=eastwest;rotatable=0;whiteSpace=wrap;html=1;" vertex="1" parent="MzyutKGNI4zdLHdTND5u-15">
          <mxGeometry y="30" width="170" height="30" as="geometry" />
        </mxCell>
        <mxCell id="MzyutKGNI4zdLHdTND5u-18" value="e-mail" style="text;strokeColor=none;fillColor=none;align=left;verticalAlign=middle;spacingLeft=4;spacingRight=4;overflow=hidden;points=[[0,0.5],[1,0.5]];portConstraint=eastwest;rotatable=0;whiteSpace=wrap;html=1;" vertex="1" parent="MzyutKGNI4zdLHdTND5u-15">
          <mxGeometry y="60" width="170" height="30" as="geometry" />
        </mxCell>
        <mxCell id="MzyutKGNI4zdLHdTND5u-20" value="Номер телефона" style="text;strokeColor=none;fillColor=none;align=left;verticalAlign=middle;spacingLeft=4;spacingRight=4;overflow=hidden;points=[[0,0.5],[1,0.5]];portConstraint=eastwest;rotatable=0;whiteSpace=wrap;html=1;" vertex="1" parent="MzyutKGNI4zdLHdTND5u-15">
          <mxGeometry y="90" width="170" height="30" as="geometry" />
        </mxCell>
        <mxCell id="MzyutKGNI4zdLHdTND5u-17" value="Пароль" style="text;strokeColor=none;fillColor=none;align=left;verticalAlign=middle;spacingLeft=4;spacingRight=4;overflow=hidden;points=[[0,0.5],[1,0.5]];portConstraint=eastwest;rotatable=0;whiteSpace=wrap;html=1;" vertex="1" parent="MzyutKGNI4zdLHdTND5u-15">
          <mxGeometry y="120" width="170" height="30" as="geometry" />
        </mxCell>
        <mxCell id="MzyutKGNI4zdLHdTND5u-19" value="Подтверждение пароля" style="text;strokeColor=none;fillColor=none;align=left;verticalAlign=middle;spacingLeft=4;spacingRight=4;overflow=hidden;points=[[0,0.5],[1,0.5]];portConstraint=eastwest;rotatable=0;whiteSpace=wrap;html=1;" vertex="1" parent="MzyutKGNI4zdLHdTND5u-15">
          <mxGeometry y="150" width="170" height="30" as="geometry" />
        </mxCell>
        <mxCell id="MzyutKGNI4zdLHdTND5u-21" style="edgeStyle=orthogonalEdgeStyle;rounded=0;orthogonalLoop=1;jettySize=auto;html=1;entryX=0.5;entryY=0;entryDx=0;entryDy=0;" edge="1" parent="1" source="MzyutKGNI4zdLHdTND5u-13" target="MzyutKGNI4zdLHdTND5u-15">
          <mxGeometry relative="1" as="geometry" />
        </mxCell>
        <mxCell id="MzyutKGNI4zdLHdTND5u-26" style="edgeStyle=orthogonalEdgeStyle;rounded=0;orthogonalLoop=1;jettySize=auto;html=1;entryX=0.5;entryY=0;entryDx=0;entryDy=0;" edge="1" parent="1" source="MzyutKGNI4zdLHdTND5u-22" target="MzyutKGNI4zdLHdTND5u-24">
          <mxGeometry relative="1" as="geometry" />
        </mxCell>
        <mxCell id="MzyutKGNI4zdLHdTND5u-22" value="Валидация на фронте" style="rounded=1;whiteSpace=wrap;html=1;" vertex="1" parent="1">
          <mxGeometry x="354" y="690" width="120" height="60" as="geometry" />
        </mxCell>
        <mxCell id="MzyutKGNI4zdLHdTND5u-36" style="edgeStyle=orthogonalEdgeStyle;rounded=0;orthogonalLoop=1;jettySize=auto;html=1;entryX=0.5;entryY=0;entryDx=0;entryDy=0;" edge="1" parent="1" source="MzyutKGNI4zdLHdTND5u-23" target="MzyutKGNI4zdLHdTND5u-35">
          <mxGeometry relative="1" as="geometry" />
        </mxCell>
        <mxCell id="MzyutKGNI4zdLHdTND5u-23" value="Валидация на сервере" style="rounded=1;whiteSpace=wrap;html=1;" vertex="1" parent="1">
          <mxGeometry x="354" y="910" width="120" height="60" as="geometry" />
        </mxCell>
        <mxCell id="MzyutKGNI4zdLHdTND5u-27" style="edgeStyle=orthogonalEdgeStyle;rounded=0;orthogonalLoop=1;jettySize=auto;html=1;entryX=0.5;entryY=0;entryDx=0;entryDy=0;" edge="1" parent="1" source="MzyutKGNI4zdLHdTND5u-24" target="MzyutKGNI4zdLHdTND5u-23">
          <mxGeometry relative="1" as="geometry" />
        </mxCell>
        <mxCell id="MzyutKGNI4zdLHdTND5u-28" value="Да" style="edgeLabel;html=1;align=center;verticalAlign=middle;resizable=0;points=[];" vertex="1" connectable="0" parent="MzyutKGNI4zdLHdTND5u-27">
          <mxGeometry x="0.5559" relative="1" as="geometry">
            <mxPoint y="-17" as="offset" />
          </mxGeometry>
        </mxCell>
        <mxCell id="MzyutKGNI4zdLHdTND5u-33" style="edgeStyle=orthogonalEdgeStyle;rounded=0;orthogonalLoop=1;jettySize=auto;html=1;entryX=0.5;entryY=1;entryDx=0;entryDy=0;" edge="1" parent="1" source="MzyutKGNI4zdLHdTND5u-24" target="MzyutKGNI4zdLHdTND5u-31">
          <mxGeometry relative="1" as="geometry" />
        </mxCell>
        <mxCell id="MzyutKGNI4zdLHdTND5u-34" value="Нет" style="edgeLabel;html=1;align=center;verticalAlign=middle;resizable=0;points=[];" vertex="1" connectable="0" parent="MzyutKGNI4zdLHdTND5u-33">
          <mxGeometry x="-0.5022" y="-1" relative="1" as="geometry">
            <mxPoint as="offset" />
          </mxGeometry>
        </mxCell>
        <mxCell id="MzyutKGNI4zdLHdTND5u-24" value="пройдена?" style="rhombus;whiteSpace=wrap;html=1;" vertex="1" parent="1">
          <mxGeometry x="359.5" y="800" width="109" height="50" as="geometry" />
        </mxCell>
        <mxCell id="MzyutKGNI4zdLHdTND5u-31" value="Сообщение об ошибке" style="ellipse;whiteSpace=wrap;html=1;" vertex="1" parent="1">
          <mxGeometry x="489" y="700" width="110" height="50" as="geometry" />
        </mxCell>
        <mxCell id="MzyutKGNI4zdLHdTND5u-32" style="edgeStyle=orthogonalEdgeStyle;rounded=0;orthogonalLoop=1;jettySize=auto;html=1;entryX=0.995;entryY=0.084;entryDx=0;entryDy=0;entryPerimeter=0;" edge="1" parent="1" source="MzyutKGNI4zdLHdTND5u-31" target="MzyutKGNI4zdLHdTND5u-15">
          <mxGeometry relative="1" as="geometry" />
        </mxCell>
        <mxCell id="MzyutKGNI4zdLHdTND5u-37" style="edgeStyle=orthogonalEdgeStyle;rounded=0;orthogonalLoop=1;jettySize=auto;html=1;entryX=0.5;entryY=1;entryDx=0;entryDy=0;" edge="1" parent="1" source="MzyutKGNI4zdLHdTND5u-35" target="MzyutKGNI4zdLHdTND5u-31">
          <mxGeometry relative="1" as="geometry" />
        </mxCell>
        <mxCell id="MzyutKGNI4zdLHdTND5u-38" value="Нет" style="edgeLabel;html=1;align=center;verticalAlign=middle;resizable=0;points=[];" vertex="1" connectable="0" parent="MzyutKGNI4zdLHdTND5u-37">
          <mxGeometry x="-0.5995" y="-2" relative="1" as="geometry">
            <mxPoint x="-13" y="-2" as="offset" />
          </mxGeometry>
        </mxCell>
        <mxCell id="MzyutKGNI4zdLHdTND5u-40" style="edgeStyle=orthogonalEdgeStyle;rounded=0;orthogonalLoop=1;jettySize=auto;html=1;" edge="1" parent="1" source="MzyutKGNI4zdLHdTND5u-35" target="MzyutKGNI4zdLHdTND5u-39">
          <mxGeometry relative="1" as="geometry" />
        </mxCell>
        <mxCell id="MzyutKGNI4zdLHdTND5u-41" value="Да" style="edgeLabel;html=1;align=center;verticalAlign=middle;resizable=0;points=[];" vertex="1" connectable="0" parent="MzyutKGNI4zdLHdTND5u-40">
          <mxGeometry x="-0.2611" y="2" relative="1" as="geometry">
            <mxPoint x="-2" as="offset" />
          </mxGeometry>
        </mxCell>
        <mxCell id="MzyutKGNI4zdLHdTND5u-35" value="пройдена?" style="rhombus;whiteSpace=wrap;html=1;" vertex="1" parent="1">
          <mxGeometry x="359.5" y="1010" width="109" height="50" as="geometry" />
        </mxCell>
        <mxCell id="MzyutKGNI4zdLHdTND5u-43" style="edgeStyle=orthogonalEdgeStyle;rounded=0;orthogonalLoop=1;jettySize=auto;html=1;entryX=0.5;entryY=0;entryDx=0;entryDy=0;" edge="1" parent="1" source="MzyutKGNI4zdLHdTND5u-39" target="MzyutKGNI4zdLHdTND5u-42">
          <mxGeometry relative="1" as="geometry" />
        </mxCell>
        <mxCell id="MzyutKGNI4zdLHdTND5u-39" value="Создание пользователя в БД" style="rounded=1;whiteSpace=wrap;html=1;" vertex="1" parent="1">
          <mxGeometry x="354" y="1130" width="120" height="60" as="geometry" />
        </mxCell>
        <mxCell id="MzyutKGNI4zdLHdTND5u-44" style="edgeStyle=orthogonalEdgeStyle;rounded=0;orthogonalLoop=1;jettySize=auto;html=1;" edge="1" parent="1" source="MzyutKGNI4zdLHdTND5u-42" target="MzyutKGNI4zdLHdTND5u-11">
          <mxGeometry relative="1" as="geometry" />
        </mxCell>
        <mxCell id="MzyutKGNI4zdLHdTND5u-42" value="Присвоение роли" style="rounded=1;whiteSpace=wrap;html=1;" vertex="1" parent="1">
          <mxGeometry x="354" y="1230" width="120" height="60" as="geometry" />
        </mxCell>
      </root>
    </mxGraphModel>
  </diagram>
</mxfile>
